<svg version="1.1" id="logo" xmlns="http://www.w3.org/2000/svg" x="0" y="0" viewBox="0 0 612.6 234.1" style="enable-background:new 0 0 612.6 234.1" xml:space="preserve"><style>.st0{fill:#fff}</style><path class="st0" d="M28.8 87.8c0-10.9 8.5-18.8 23.8-21.3L76 62.6v-3.7c0-8.9-6.6-14.3-15.9-14.3-7.9 0-14 3.6-18.2 9.5l-11-8.5c6.4-8.6 16.8-14 29.7-14C80 31.5 90.7 43 90.7 58.9v47.7H75.9v-8.2c-5.2 6.3-14.2 10.3-23.1 10.3-14.3 0-24-8.1-24-20.9zm26.8 8.9c9 0 16-4.3 20.3-11.2V73.1l-19.5 3.3c-9 1.6-12.8 5.4-12.8 10.9.1 5.5 4.5 9.4 12 9.4zM98.7 34.4h14.8v7c5.4-5.7 12.6-9.9 22.9-9.9 15.9 0 28.1 10.7 28.1 31.7v43.4h-14.9V63.7c0-11.5-6.3-18.3-16.6-18.3-9.9 0-15.8 6.2-19.5 12.5v48.7H98.7V34.4zM88.5 177.7l11.9 9.1c-6.8 9.1-17.6 15-31.3 15-24.8 0-40.4-18.3-40.4-39.9 0-21.6 15.6-39.9 40.4-39.9 13.5 0 24.5 5.9 31.3 15l-11.9 9c-4.1-5.7-10.9-9.8-19.4-9.8-14.2 0-24.5 11.2-24.5 25.7 0 14.7 10.3 25.7 24.7 25.7 8.4 0 15.1-4.1 19.2-9.9zM123.7 140.1h-16v-13.3h16v-18.1h14.9v18.1h25.8v13.3h-25.8v33.8c0 9.7 5.2 12.9 13.2 12.9 4.9 0 10.1-.6 12.7-1.6v13c-3.4 1.4-9.4 2.1-14.9 2.1-16.9 0-25.8-8.9-25.8-26.5v-33.7zM174.5 21.6v9.9h14.4V17.6c0-5-4.5-10.1-9.5-10.5h-14.9V21l10 .6zM174.5 212.1v-9.9h14.4v13.9c0 5-4.5 10.1-9.5 10.5h-14.9v-13.8l10-.7zM18.8 212.1v-9.9H4.4v13.9c0 5 4.5 10.1 9.5 10.5h14.9v-13.8l-10-.7zM18.8 21.6v9.9H4.4V17.6c0-5 4.5-10.1 9.5-10.5h14.9V21l-10 .6z"/><g><path class="st0" d="M238.1 74.3c0-2.6 2-4.4 5.6-5l5.7-.9v-1.2c0-2.4-1.7-3.7-4.1-3.7-2 0-3.5.9-4.6 2.4l-2.2-1.7c1.5-2 3.9-3.3 6.9-3.3 4.3 0 6.9 2.5 6.9 6.3v11.4h-2.9v-2.2c-1.3 1.7-3.5 2.6-5.7 2.6-3.3.1-5.6-1.8-5.6-4.7zm6.1 2.4c2.3 0 4.1-1.1 5.2-2.9v-3.3l-5 .8c-2.3.4-3.4 1.5-3.4 2.9 0 1.5 1.2 2.5 3.2 2.5zM264.7 77.4c-.8-.6-1.2-1.5-1.2-2.4 0-1.4.7-2.5 2-3.3-1.5-1.1-2.4-2.8-2.4-4.7 0-3.3 2.6-6 6.6-6 1.2 0 2.4.3 3.3.7h6.3v2.5h-3.7c.5.8.7 1.8.7 2.8 0 3.2-2.5 6-6.6 6-.8 0-1.7-.1-2.4-.3-.7.5-1.1 1.1-1.1 1.8s.4 1.2 1.4 1.2h4.9c4.5 0 6.6 2.2 6.6 5.2 0 3.6-3.6 6.2-8.7 6.2-5 0-8.3-2-8.3-5.4.1-1.7.9-3.1 2.6-4.3zm5.8 7.3c3.6 0 5.8-1.4 5.8-3.6 0-1.6-.9-2.9-3.9-2.9h-5.5c-1.2.9-1.9 1.9-1.9 3.2 0 2 2.1 3.3 5.5 3.3zm3.2-17.8c0-2.1-1.4-3.8-3.9-3.8s-3.9 1.7-3.9 3.8c0 2.1 1.4 3.7 3.9 3.7 2.5.1 3.9-1.6 3.9-3.7zM296 79.3c-5.7 0-9.3-4.2-9.3-9.2 0-5.2 3.3-9.2 8.6-9.2 4.6 0 7.6 3.2 7.6 7.4 0 .7-.1 1.3-.2 1.8h-13.1c.1 4.1 2.7 6.5 6.3 6.5 2.2 0 4-1 5.2-2.5l2.1 1.7c-1.5 2.1-4 3.5-7.2 3.5zM289.9 68h10.2c-.1-2.5-1.8-4.6-4.8-4.6-2.8 0-4.8 1.6-5.4 4.6zM313.9 61.6h2.9v1.9c1.4-1.5 3.1-2.6 5.7-2.6 3.8 0 6.6 2.6 6.6 7.4v10.3h-2.9V68.4c0-3-1.7-4.8-4.4-4.8-2.5 0-4 1.4-5.1 3.2v11.8h-2.9v-17zM353.6 74.1l2.3 1.7c-1.6 2.1-4.1 3.5-7.2 3.5-5.6 0-9.2-4.2-9.2-9.2 0-5 3.6-9.2 9.2-9.2 3.1 0 5.6 1.4 7.2 3.5l-2.3 1.7c-1-1.5-2.8-2.5-4.9-2.5-3.6 0-6.2 2.9-6.2 6.5s2.6 6.5 6.3 6.5c2.1 0 3.8-1 4.8-2.5zM373.1 79.3c-5.7 0-9.3-4.2-9.3-9.2 0-5.2 3.3-9.2 8.6-9.2 4.6 0 7.6 3.2 7.6 7.4 0 .7-.1 1.3-.2 1.8h-13.1c.1 4.1 2.7 6.5 6.3 6.5 2.2 0 4-1 5.2-2.5l2.1 1.7c-1.5 2.1-4.1 3.5-7.2 3.5zM366.9 68h10.2c-.1-2.5-1.8-4.6-4.8-4.6-2.8 0-4.8 1.6-5.4 4.6zM406.1 61.6h2.9v1.9c1.4-1.5 3.1-2.6 5.7-2.6 3.8 0 6.7 2.6 6.7 7.4v10.3h-2.9V68.4c0-3-1.7-4.8-4.4-4.8-2.5 0-4 1.4-5.1 3.2v11.8h-2.9v-17zM432.2 74.3c0-2.6 2-4.4 5.6-5l5.7-.9v-1.2c0-2.4-1.7-3.7-4.1-3.7-2 0-3.5.9-4.6 2.4l-2.2-1.7c1.5-2 3.9-3.3 6.9-3.3 4.3 0 6.9 2.5 6.9 6.3v11.4h-2.9v-2.2c-1.3 1.7-3.5 2.6-5.7 2.6-3.4.1-5.6-1.8-5.6-4.7zm6 2.4c2.3 0 4.1-1.1 5.2-2.9v-3.3l-5 .8c-2.3.4-3.4 1.5-3.4 2.9.1 1.5 1.3 2.5 3.2 2.5zM459.2 64.2H456v-2.6h3.2v-4.3h2.9v4.3h5.9v2.6h-5.9v8.7c0 2.7 1.4 3.4 3.4 3.4 1.1 0 1.9-.1 2.5-.4v2.6c-.8.3-1.7.5-2.9.5-3.8 0-5.9-1.9-5.9-6v-8.8zM477.9 55.2c0-1.1.9-2 2-2s2 .9 2 2-.9 2-2 2-2-.9-2-2zm.5 6.4h2.9v17h-2.9v-17zM510.4 70.1c0 5-3.7 9.2-9.2 9.2-5.5 0-9.2-4.2-9.2-9.2 0-5 3.7-9.2 9.2-9.2 5.5 0 9.2 4.3 9.2 9.2zm-3 0c0-3.5-2.6-6.5-6.1-6.5-3.6 0-6.2 2.9-6.2 6.5 0 3.5 2.6 6.5 6.2 6.5 3.5 0 6.1-3 6.1-6.5zM521.1 61.6h2.9v1.9c1.4-1.5 3.1-2.6 5.7-2.6 3.8 0 6.7 2.6 6.7 7.4v10.3h-2.9V68.4c0-3-1.7-4.8-4.4-4.8-2.5 0-4 1.4-5.1 3.2v11.8h-2.9v-17zM547.2 74.3c0-2.6 2-4.4 5.6-5l5.7-.9v-1.2c0-2.4-1.7-3.7-4.1-3.7-2 0-3.5.9-4.6 2.4l-2.2-1.7c1.5-2 3.9-3.3 6.9-3.3 4.3 0 6.9 2.5 6.9 6.3v11.4h-2.9v-2.2c-1.3 1.7-3.5 2.6-5.7 2.6-3.3.1-5.6-1.8-5.6-4.7zm6.1 2.4c2.3 0 4.1-1.1 5.2-2.9v-3.3l-5 .8c-2.3.4-3.4 1.5-3.4 2.9 0 1.5 1.2 2.5 3.2 2.5zM573.2 53.3h2.9v25.3h-2.9V53.3zM596.1 79.3c-5.7 0-9.3-4.2-9.3-9.2 0-5.2 3.3-9.2 8.6-9.2 4.6 0 7.6 3.2 7.6 7.4 0 .7-.1 1.3-.2 1.8h-13.1c.1 4.1 2.7 6.5 6.3 6.5 2.2 0 4.1-1 5.2-2.5l2.1 1.7c-1.5 2.1-4.1 3.5-7.2 3.5zM589.9 68h10.2c-.1-2.5-1.8-4.6-4.8-4.6-2.8 0-4.8 1.6-5.4 4.6zM246.4 103.1c2.5 0 4.5 1 6 2.7V95.5h2.9v25.3h-2.9v-2c-1.5 1.7-3.5 2.7-6 2.7-5.3 0-8.7-4.2-8.7-9.2-.1-5 3.3-9.2 8.7-9.2zm.3 15.7c2.4 0 4.5-1.1 5.7-3.1V109c-1.3-2-3.4-3.1-5.7-3.1-3.6 0-6 2.9-6 6.5 0 3.5 2.4 6.4 6 6.4zM275.2 121.5c-5.7 0-9.3-4.2-9.3-9.2 0-5.2 3.3-9.2 8.6-9.2 4.6 0 7.6 3.2 7.6 7.4 0 .7-.1 1.3-.2 1.8h-13.1c.1 4.1 2.7 6.5 6.3 6.5 2.2 0 4.1-1 5.2-2.5l2.1 1.7c-1.5 2.1-4 3.5-7.2 3.5zm-6.1-11.4h10.2c-.1-2.5-1.8-4.6-4.8-4.6-2.9.1-4.8 1.7-5.4 4.6zM308.3 95.5h2.9v25.3h-2.9V95.5zM322.3 116.5c0-2.6 2-4.4 5.6-5l5.7-.9v-1.2c0-2.4-1.7-3.7-4.1-3.7-2 0-3.5.9-4.6 2.4l-2.2-1.7c1.5-2 3.9-3.3 6.9-3.3 4.3 0 6.9 2.5 6.9 6.3v11.4h-2.9v-2.2c-1.3 1.7-3.5 2.6-5.7 2.6-3.3.1-5.6-1.8-5.6-4.7zm6.1 2.4c2.3 0 4.1-1.1 5.2-2.9v-3.3l-5 .8c-2.3.4-3.4 1.5-3.4 2.9 0 1.5 1.2 2.5 3.2 2.5zM376.2 116.3l2.3 1.7c-1.6 2.1-4.1 3.5-7.2 3.5-5.6 0-9.2-4.2-9.2-9.2 0-5 3.6-9.2 9.2-9.2 3.1 0 5.6 1.4 7.2 3.5l-2.3 1.7c-1-1.5-2.8-2.5-4.9-2.5-3.6 0-6.2 2.9-6.2 6.5s2.6 6.5 6.3 6.5c2 0 3.8-1 4.8-2.5zM404.8 112.3c0 5-3.7 9.2-9.2 9.2-5.5 0-9.2-4.2-9.2-9.2 0-5 3.7-9.2 9.2-9.2 5.4 0 9.2 4.2 9.2 9.2zm-3 0c0-3.5-2.6-6.5-6.1-6.5-3.6 0-6.2 2.9-6.2 6.5 0 3.5 2.6 6.5 6.2 6.5 3.5 0 6.1-3 6.1-6.5zM415.5 95.5h2.9v10.2c1.4-1.5 3.1-2.6 5.7-2.6 3.8 0 6.6 2.6 6.6 7.4v10.3h-2.9v-10.2c0-3-1.7-4.8-4.4-4.8-2.5 0-4 1.5-5.1 3.2v11.8h-2.9V95.5zM450.4 121.5c-5.7 0-9.3-4.2-9.3-9.2 0-5.2 3.3-9.2 8.6-9.2 4.6 0 7.6 3.2 7.6 7.4 0 .7-.1 1.3-.2 1.8H444c.1 4.1 2.7 6.5 6.3 6.5 2.2 0 4.1-1 5.2-2.5l2.1 1.7c-1.5 2.1-4.1 3.5-7.2 3.5zm-6.2-11.4h10.2c-.1-2.5-1.8-4.6-4.8-4.6-2.8.1-4.8 1.7-5.4 4.6zm4.2-9 3.5-5.6h3.2l-4 5.6h-2.7zM468.3 116.8c1.2 1.5 2.6 2.3 4.3 2.3 1.9 0 3-1.1 3-2.6 0-3.8-8.5-2.5-8.5-8.5 0-2.7 2.3-4.9 5.5-4.9 2.4 0 4.5 1.1 5.7 2.8l-2 1.7c-.9-1.3-2.2-2.1-3.7-2.1-1.8 0-2.8 1.1-2.8 2.4 0 3.8 8.5 2.6 8.5 8.4 0 3.2-2.6 5.2-5.7 5.2-2.7 0-4.8-1.1-6.4-3l2.1-1.7zM488.5 97.4c0-1.1.9-2 2-2s2 .9 2 2-.9 2-2 2-2-.9-2-2zm.6 6.4h2.9v17h-2.9v-17zM521.1 112.3c0 5-3.7 9.2-9.2 9.2-5.5 0-9.2-4.2-9.2-9.2 0-5 3.7-9.2 9.2-9.2 5.5 0 9.2 4.2 9.2 9.2zm-3 0c0-3.5-2.6-6.5-6.1-6.5-3.6 0-6.2 2.9-6.2 6.5 0 3.5 2.6 6.5 6.2 6.5 3.5 0 6.1-3 6.1-6.5zM531.8 103.8h2.9v1.9c1.4-1.5 3.1-2.6 5.7-2.6 3.8 0 6.7 2.6 6.7 7.4v10.3h-2.9v-10.2c0-3-1.7-4.8-4.4-4.8-2.5 0-4 1.4-5.1 3.2v11.8h-2.9v-17zM246.4 145.3c2.5 0 4.5 1 6 2.7v-10.3h2.9V163h-2.9v-2c-1.5 1.7-3.5 2.7-6 2.7-5.3 0-8.7-4.2-8.7-9.2s3.3-9.2 8.7-9.2zm.3 15.7c2.4 0 4.5-1.1 5.7-3.1v-6.7c-1.3-2-3.4-3.1-5.7-3.1-3.6 0-6 2.9-6 6.5s2.4 6.4 6 6.4zM275.2 163.7c-5.7 0-9.3-4.2-9.3-9.2 0-5.2 3.3-9.2 8.6-9.2 4.6 0 7.6 3.2 7.6 7.4 0 .7-.1 1.3-.2 1.8h-13.1c.1 4.1 2.7 6.5 6.3 6.5 2.2 0 4.1-1 5.2-2.5l2.1 1.7c-1.5 2.1-4 3.5-7.2 3.5zm-6.1-11.4h10.2c-.1-2.5-1.8-4.6-4.8-4.6-2.9 0-4.8 1.7-5.4 4.6zM293.1 159c1.2 1.5 2.6 2.3 4.3 2.3 1.9 0 3-1.1 3-2.6 0-3.8-8.5-2.5-8.5-8.5 0-2.7 2.3-4.9 5.5-4.9 2.4 0 4.5 1.1 5.7 2.8l-2 1.7c-.9-1.3-2.2-2.1-3.7-2.1-1.8 0-2.8 1.1-2.8 2.4 0 3.8 8.5 2.6 8.5 8.4 0 3.2-2.6 5.2-5.7 5.2-2.7 0-4.8-1.1-6.4-3l2.1-1.7zM330.1 148.6h-3.2V146h3.2v-4.3h2.9v4.3h5.9v2.6H333v8.7c0 2.7 1.4 3.4 3.4 3.4 1.1 0 1.9-.1 2.5-.4v2.6c-.8.3-1.7.5-2.9.5-3.8 0-5.9-1.9-5.9-6v-8.8zM356.9 163.7c-5.7 0-9.3-4.2-9.3-9.2 0-5.2 3.3-9.2 8.6-9.2 4.6 0 7.6 3.2 7.6 7.4 0 .7-.1 1.3-.2 1.8h-13.1c.1 4.1 2.7 6.5 6.3 6.5 2.2 0 4-1 5.2-2.5l2.1 1.7c-1.5 2.1-4 3.5-7.2 3.5zm-6.1-11.4H361c-.1-2.5-1.8-4.6-4.8-4.6-2.9 0-4.8 1.7-5.4 4.6zM374.8 146h2.9v2.1c1.2-1.5 2.8-2.5 5-2.5.5 0 1 .1 1.5.2v2.8c-.5-.1-1-.2-1.7-.2-2.2 0-3.7 1.1-4.7 2.9V163h-2.9v-17zM394.2 146h2.9v2.1c1.2-1.5 2.8-2.5 5-2.5.5 0 1 .1 1.5.2v2.8c-.5-.1-1-.2-1.7-.2-2.2 0-3.7 1.1-4.7 2.9V163h-2.9v-17zM413.1 139.5c0-1.1.9-2 2-2s2 .9 2 2-.9 2-2 2c-1.1.1-2-.8-2-2zm.6 6.5h2.9v17h-2.9v-17zM429.7 148.6h-3.2V146h3.2v-4.3h2.9v4.3h5.9v2.6h-5.9v8.7c0 2.7 1.4 3.4 3.4 3.4 1.1 0 1.9-.1 2.5-.4v2.6c-.8.3-1.7.5-2.9.5-3.8 0-5.9-1.9-5.9-6v-8.8zM465.6 154.5c0 5-3.7 9.2-9.2 9.2-5.5 0-9.2-4.2-9.2-9.2s3.7-9.2 9.2-9.2c5.5 0 9.2 4.2 9.2 9.2zm-3 0c0-3.5-2.6-6.5-6.1-6.5-3.6 0-6.2 2.9-6.2 6.5s2.6 6.5 6.2 6.5c3.5 0 6.1-3 6.1-6.5zM475.7 139.5c0-1.1.9-2 2-2s2 .9 2 2-.9 2-2 2c-1 .1-2-.8-2-2zm.6 6.5h2.9v17h-2.9v-17zM491.3 146h2.9v2.1c1.2-1.5 2.8-2.5 5-2.5.5 0 1 .1 1.5.2v2.8c-.5-.1-1-.2-1.7-.2-2.2 0-3.7 1.1-4.7 2.9V163h-2.9v-17zM517.6 163.7c-5.7 0-9.3-4.2-9.3-9.2 0-5.2 3.3-9.2 8.6-9.2 4.6 0 7.6 3.2 7.6 7.4 0 .7-.1 1.3-.2 1.8h-13.1c.1 4.1 2.7 6.5 6.3 6.5 2.2 0 4-1 5.2-2.5l2.1 1.7c-1.5 2.1-4 3.5-7.2 3.5zm-6.1-11.4h10.2c-.1-2.5-1.8-4.6-4.8-4.6-2.8 0-4.8 1.7-5.4 4.6zM535.6 159c1.2 1.5 2.6 2.3 4.3 2.3 1.9 0 3-1.1 3-2.6 0-3.8-8.5-2.5-8.5-8.5 0-2.7 2.3-4.9 5.5-4.9 2.4 0 4.5 1.1 5.7 2.8l-2 1.7c-.9-1.3-2.2-2.1-3.7-2.1-1.8 0-2.8 1.1-2.8 2.4 0 3.8 8.5 2.6 8.5 8.4 0 3.2-2.6 5.2-5.7 5.2-2.7 0-4.8-1.1-6.4-3l2.1-1.7z"/></g></svg>