<svg class="logo-brand">
    <use>
        <symbol id="logoBEDROCK" viewBox="0 0 485 427">
            <g fill="currentColor">
                <path d="M-.6 411.3v-75.1H27c5.2 0 9.6.5 13.2 1.4 3.6 1 6.6 2.3 8.9 4.1 2.3 1.8 4 3.9 5 6.4 1 2.5 1.6 5.3 1.6 8.4 0 1.7-.2 3.3-.7 4.9-.5 1.6-1.2 3-2.3 4.4-1 1.4-2.4 2.6-4 3.7s-3.6 2.1-5.8 2.9c4.9 1.2 8.6 3.2 11 5.8 2.4 2.7 3.6 6.2 3.6 10.4 0 3.2-.6 6.2-1.9 8.9-1.2 2.7-3 5.1-5.4 7.2-2.4 2-5.3 3.6-8.8 4.8-3.5 1.2-7.5 1.7-12 1.7h-30zm17.4-43.5h9.1c1.9 0 3.7-.1 5.2-.4 1.5-.3 2.9-.8 3.9-1.4 1.1-.7 1.9-1.6 2.5-2.8.6-1.2.9-2.7.9-4.5 0-1.8-.2-3.3-.7-4.5-.4-1.2-1.1-2.1-2.1-2.9-.9-.7-2.1-1.2-3.5-1.5-1.4-.3-3.1-.5-5.1-.5H16.8v18.5zm0 11.7v18.7h12.3c2.3 0 4.2-.3 5.6-.9 1.5-.6 2.6-1.3 3.4-2.3.8-.9 1.4-2 1.7-3.1.3-1.2.5-2.4.5-3.6 0-1.4-.2-2.6-.5-3.7-.4-1.1-1-2-1.9-2.8-.9-.8-2-1.3-3.5-1.8-1.4-.4-3.3-.6-5.5-.6H16.8zM115.3 336.2v13.4H84.5v17.5h23.6V380H84.5v17.9h30.8v13.4H67v-75.1h48.3zM193.3 373.7c0 5.4-.9 10.4-2.8 15s-4.5 8.6-7.9 11.9c-3.4 3.3-7.5 6-12.3 7.8-4.8 1.9-10.1 2.8-15.9 2.8h-29.2v-75.1h29.2c5.8 0 11.2.9 15.9 2.8 4.8 1.9 8.9 4.5 12.3 7.8 3.4 3.3 6 7.3 7.9 11.9 1.9 4.8 2.8 9.7 2.8 15.1zm-17.8 0c0-3.7-.5-7.1-1.4-10-1-3-2.3-5.5-4.1-7.6-1.8-2.1-4-3.7-6.6-4.8-2.6-1.1-5.6-1.7-8.9-1.7h-11.6v48.3h11.6c3.3 0 6.3-.6 8.9-1.7 2.6-1.1 4.8-2.7 6.6-4.8 1.8-2.1 3.2-4.6 4.1-7.6.9-3 1.4-6.3 1.4-10.1zM219.1 383.5v27.8h-17.4v-75.1h24.4c5.4 0 10.1.6 13.9 1.7 3.8 1.1 7 2.7 9.4 4.7 2.4 2 4.2 4.3 5.3 7.1 1.1 2.7 1.6 5.7 1.6 8.9 0 2.4-.3 4.7-1 6.9s-1.6 4.2-2.9 6c-1.3 1.8-2.9 3.5-4.7 4.9-1.9 1.4-4 2.6-6.5 3.6 1.2.6 2.3 1.3 3.3 2.2 1 .9 1.9 1.9 2.7 3.1l16 26.1h-15.8c-2.9 0-5-1.1-6.3-3.3l-12.5-21.8c-.5-1-1.2-1.6-1.9-2.1-.7-.4-1.8-.6-3.1-.6h-4.5zm0-12h7c2.4 0 4.4-.3 6.1-.9 1.7-.6 3-1.4 4.1-2.5 1.1-1.1 1.8-2.3 2.3-3.7.5-1.4.7-3 .7-4.6 0-3.3-1.1-5.9-3.2-7.7-2.1-1.9-5.5-2.8-10-2.8h-7v22.2zM341.7 373.7c0 5.4-.9 10.5-2.8 15.1-1.9 4.7-4.5 8.7-7.9 12.2-3.4 3.5-7.5 6.2-12.3 8.1-4.8 2-10.1 2.9-15.9 2.9-5.8 0-11.2-1-16-2.9-4.8-2-8.9-4.7-12.3-8.1-3.4-3.5-6.1-7.5-7.9-12.2-1.9-4.7-2.8-9.7-2.8-15.1s.9-10.5 2.8-15.1c1.9-4.7 4.5-8.7 7.9-12.2 3.4-3.4 7.5-6.1 12.3-8.1 4.8-2 10.1-2.9 16-2.9 5.8 0 11.2 1 15.9 3 4.8 2 8.9 4.7 12.3 8.1 3.4 3.4 6 7.5 7.9 12.2 1.8 4.6 2.8 9.6 2.8 15zm-17.9 0c0-3.7-.5-7-1.4-10-1-3-2.3-5.5-4.1-7.5-1.8-2.1-4-3.6-6.6-4.7-2.6-1.1-5.6-1.6-8.9-1.6-3.4 0-6.4.5-9 1.6-2.6 1.1-4.8 2.7-6.6 4.7-1.8 2.1-3.2 4.6-4.1 7.5-1 3-1.4 6.3-1.4 10s.5 7.1 1.4 10.1c1 3 2.3 5.5 4.1 7.5 1.8 2.1 4 3.6 6.6 4.7 2.6 1.1 5.6 1.6 9 1.6 3.3 0 6.3-.5 8.9-1.6 2.6-1.1 4.8-2.7 6.6-4.7 1.8-2.1 3.2-4.6 4.1-7.5 1-3 1.4-6.3 1.4-10.1zM400.4 391.9c.4 0 .8.1 1.2.2.4.2.8.4 1.2.8l6.9 7.3c-3 3.9-6.8 6.9-11.4 8.9-4.6 2-9.9 3-16.1 3-5.7 0-10.8-1-15.3-2.9s-8.3-4.6-11.5-8c-3.1-3.4-5.6-7.5-7.2-12.2-1.7-4.7-2.5-9.8-2.5-15.3 0-5.6 1-10.7 2.9-15.4 1.9-4.7 4.6-8.7 8.1-12.1 3.5-3.4 7.6-6 12.4-7.9 4.8-1.9 10.1-2.8 15.9-2.8 2.8 0 5.5.2 8 .7 2.5.5 4.8 1.2 7 2.1 2.2.9 4.2 1.9 6 3.1 1.8 1.2 3.4 2.6 4.8 4l-5.9 7.9c-.4.5-.8.9-1.3 1.3s-1.2.6-2.2.6c-.6 0-1.2-.1-1.8-.4-.5-.3-1.1-.6-1.8-1-.6-.4-1.3-.8-2-1.3s-1.6-.9-2.6-1.3-2.2-.7-3.6-1c-1.4-.3-2.9-.4-4.8-.4-3.2 0-6 .6-8.7 1.7-2.6 1.1-4.9 2.7-6.7 4.8-1.9 2.1-3.3 4.6-4.4 7.5-1 3-1.6 6.3-1.6 9.9 0 3.8.5 7.3 1.6 10.3 1 3 2.5 5.5 4.3 7.5 1.8 2 3.9 3.6 6.3 4.7s5 1.6 7.7 1.6c1.6 0 3-.1 4.3-.2 1.3-.2 2.5-.4 3.6-.8s2.2-.9 3.2-1.5 2-1.3 3.1-2.2c.4-.3.9-.6 1.3-.9.6-.2 1.1-.3 1.6-.3zM435.1 366.6h2.8c2.6 0 4.4-.8 5.6-2.4l16.9-24.5c.9-1.3 2-2.2 3.2-2.7 1.2-.5 2.6-.7 4.4-.7h15l-22.3 30.3c-.8 1.1-1.6 2-2.5 2.7-.9.7-1.7 1.3-2.6 1.8 1.3.5 2.5 1.1 3.6 2 1.1.8 2.1 2 3 3.4l22.7 34.8h-15.6c-1 0-1.8-.1-2.6-.2-.7-.1-1.3-.3-1.8-.6s-1-.6-1.3-1c-.4-.4-.7-.8-1.1-1.4l-17-26.1c-.6-1-1.4-1.6-2.3-2-.9-.4-2.2-.6-3.8-.6h-4.2v31.9h-17.4v-75.1h17.4v30.4z"></path>
            </g>
            <path fill="currentColor" d="M324.9 202c-2.1-3.4-4.5-6.3-7.3-8.7-2.8-2.4-5.8-4.4-9-6 6.7-2.6 12.7-5.8 17.8-9.8 5.2-4 9.5-8.5 13.1-13.6 3.5-5.1 6.2-10.6 8-16.5 1.8-6 2.7-12.3 2.7-19 0-8.8-1.5-16.9-4.5-24.4s-7.9-14-14.6-19.5c-6.7-5.5-15.3-9.8-25.8-12.8-10.6-3.1-23.3-4.6-38.3-4.6h-14.4l-34 206.9h29v-76.5h12.2c3.7 0 6.6.6 8.6 1.7s3.8 3 5.3 5.7l34.4 60.1c3.5 6.1 9.3 9.1 17.3 9.1h43.4L324.9 202zm-23.6-57.3c-1.3 3.9-3.5 7.4-6.4 10.3-2.9 2.9-6.7 5.2-11.3 6.9-4.6 1.7-10.2 2.5-16.7 2.5h-19.3V103h19.3c12.4 0 21.6 2.6 27.5 7.7 5.9 5.1 8.9 12.2 8.9 21.3 0 4.5-.7 8.8-2 12.7zM228.4 129.8l13.8-84.5c-6.2-4.5-14-8-23.5-10.5-10-2.6-22.2-4-36.5-4h-76.1v206.9h82.6c8 0 15.4-.7 22.3-2l17.1-104.5.3-1.4zm-74.3-63.1h28.1c5.4 0 10.1.4 14 1.3 3.9.9 7.2 2.3 9.7 4.3 2.6 2 4.4 4.6 5.7 7.9 1.2 3.3 1.8 7.4 1.8 12.3 0 5-.8 9.2-2.3 12.5-1.6 3.3-3.8 5.9-6.8 7.8-3 1.9-6.6 3.2-10.9 4-4.3.8-9 1.1-14.3 1.1h-25V66.7zm33.8 134.8h-33.8V150h33.5c6.1 0 11.1.6 15.1 1.7s7.2 2.7 9.6 4.8c2.4 2.1 4.1 4.6 5.1 7.7 1 3 1.5 6.4 1.5 10.2 0 3.3-.4 6.6-1.3 9.8-.9 3.2-2.4 6.1-4.7 8.7-2.3 2.6-5.4 4.6-9.4 6.2-4.1 1.6-9.3 2.4-15.6 2.4z"></path>
        </symbol>
    </use>

</svg>